<svg width="102" height="40" viewBox="0 0 102 40" fill="none" xmlns="http://www.w3.org/2000/svg">
    <path d="M99.4457 34.2472C97.1685 34.2472 96.3595 35.1761 96.0599 35.8652C95.8801 36.2847 95.9101 36.5843 95.9101 36.5843C95.9101 36.6143 95.9101 36.6442 95.9101 36.7041V40H101.813V34.2472C101.363 34.2173 100.734 34.2472 99.4457 34.2472Z" fill="#010202"/>
    <path d="M45.3033 8.83899C38.5618 8.83899 33.0786 14.3221 33.0786 21.0337V40H38.8314V21.0337C38.8314 17.3184 41.7378 14.2922 45.3033 14.2922C48.8689 14.2922 51.7752 17.3184 51.7752 21.0337V40H57.5281V21.0337C57.5281 14.2922 52.0449 8.83899 45.3033 8.83899Z" fill="#010202"/>
    <path d="M92.5843 1.61798C92.2846 0.928837 91.5056 0 89.2884 0C88.0599 0 87.4307 0 87.0112 0V40H92.764V2.45693C92.764 2.42696 92.764 2.397 92.764 2.33708C92.764 2.33708 92.764 2.00749 92.5843 1.61798Z" fill="#010202"/>
    <path d="M24.2698 10.2472C24.0901 10.6367 24.12 11.6554 24.12 11.6554C24.12 11.6854 24.12 11.7154 24.12 11.7753V40H29.8728V8.29962C29.5133 8.4794 28.8242 8.62921 27.5957 8.62921C25.3785 8.65917 24.5695 9.58801 24.2698 10.2472Z" fill="#010202"/>
    <path d="M24.2698 1.61798C24.0901 2.00749 24.12 2.33708 24.12 2.33708C24.12 2.36704 24.12 2.397 24.12 2.45693V5.66292H29.9028V0C29.4833 0 28.8541 0 27.5957 0C25.3485 0.0299625 24.5695 0.928837 24.2698 1.61798Z" fill="#010202"/>
    <path d="M8.29962 0.0299644H5.90262C5.75281 0.0299644 5.60299 0.0299644 5.42322 0.0299644C0.719101 0.0299644 0.0599251 3.3558 0 4.79401V39.9401C0 39.97 0.0299625 40 0.0599251 40H5.75281C5.78277 40 5.81273 39.97 5.81273 39.9401L5.75281 20.1648C5.75281 20.1348 5.78277 20.1049 5.81273 20.1049H14.5618C14.5918 20.1049 14.6217 20.1049 14.6816 20.1049C14.6816 20.1049 15.0112 20.1049 15.4007 19.9551C15.97 19.7154 16.6891 19.1461 16.9288 17.6779C16.9588 17.4682 16.9888 17.2584 16.9888 16.9888C16.9888 16.8689 16.9888 16.7191 16.9888 16.5992C16.9888 16.2996 16.9888 16 17.0187 15.7603V15.7303C17.0487 15.5506 17.0487 15.3708 17.0786 15.221C17.0786 15.191 17.0786 15.1311 17.1086 15.1011C17.1086 15.0112 17.1386 14.9213 17.1386 14.8315V14.8015C17.1386 14.7416 17.1685 14.6816 17.1985 14.6217C17.2285 14.4719 17.2884 14.3521 17.3483 14.2622H5.81273C5.78277 14.2622 5.75281 14.2322 5.75281 14.2022V5.72285C5.75281 5.69288 5.78277 5.66292 5.81273 5.66292H8.29962H17.8277H20.9438V2.81648C20.9738 2.6367 20.9738 2.45693 20.9738 2.24719C20.9738 1.28839 21.0936 0.35955 21.4532 0H21.3034H8.29962V0.0299644Z" fill="#010202"/>
    <path d="M72.8087 8.59926C72.6589 8.59926 63.76 8.59926 63.6102 8.59926V13.603C63.79 13.603 72.6888 13.573 72.8686 13.573C76.6139 13.573 79.2207 15.8802 79.2207 18.2472C79.2207 19.8052 77.3031 20.5543 75.805 20.5543H72.3293C66.0372 20.5543 60.2544 24.6891 60.2544 30.2322C60.2544 35.7453 65.9772 39.9101 72.3293 39.9101C78.6214 39.9101 84.3443 35.7453 84.3443 30.2322V18.2772C84.3443 12.9139 78.981 8.59926 72.8087 8.59926ZM79.1608 30.2322C79.1608 32.5993 76.2244 34.9663 72.3293 34.9663C68.4941 34.9663 65.4978 32.6592 65.4978 30.2322C65.4978 27.8052 68.4941 25.4981 72.3293 25.4981C78.7413 25.5581 79.1608 24.6891 79.1608 24.6891V30.2322Z" fill="#010202"/>
</svg>